G04 #@! TF.GenerationSoftware,KiCad,Pcbnew,(5.1.0)-1*
G04 #@! TF.CreationDate,2019-04-08T11:36:16+09:00*
G04 #@! TF.ProjectId,APA102,41504131-3032-42e6-9b69-6361645f7063,rev?*
G04 #@! TF.SameCoordinates,Original*
G04 #@! TF.FileFunction,Paste,Top*
G04 #@! TF.FilePolarity,Positive*
%FSLAX46Y46*%
G04 Gerber Fmt 4.6, Leading zero omitted, Abs format (unit mm)*
G04 Created by KiCad (PCBNEW (5.1.0)-1) date 2019-04-08 11:36:16*
%MOMM*%
%LPD*%
G04 APERTURE LIST*
%ADD10R,1.100000X2.000000*%
G04 APERTURE END LIST*
D10*
X103300000Y-88400000D03*
X105000000Y-88400000D03*
X106700000Y-88400000D03*
X106700000Y-83600000D03*
X105000000Y-83600000D03*
X103300000Y-83600000D03*
X108300000Y-61100000D03*
X110000000Y-61100000D03*
X111700000Y-61100000D03*
X111700000Y-65900000D03*
X110000000Y-65900000D03*
X108300000Y-65900000D03*
X113300000Y-88400000D03*
X115000000Y-88400000D03*
X116700000Y-88400000D03*
X116700000Y-83600000D03*
X115000000Y-83600000D03*
X113300000Y-83600000D03*
X118300000Y-61100000D03*
X120000000Y-61100000D03*
X121700000Y-61100000D03*
X121700000Y-65900000D03*
X120000000Y-65900000D03*
X118300000Y-65900000D03*
X123300000Y-88400000D03*
X125000000Y-88400000D03*
X126700000Y-88400000D03*
X126700000Y-83600000D03*
X125000000Y-83600000D03*
X123300000Y-83600000D03*
X133300000Y-83600000D03*
X135000000Y-83600000D03*
X136700000Y-83600000D03*
X136700000Y-88400000D03*
X135000000Y-88400000D03*
X133300000Y-88400000D03*
X138300000Y-65900000D03*
X140000000Y-65900000D03*
X141700000Y-65900000D03*
X141700000Y-61100000D03*
X140000000Y-61100000D03*
X138300000Y-61100000D03*
X143300000Y-83600000D03*
X145000000Y-83600000D03*
X146700000Y-83600000D03*
X146700000Y-88400000D03*
X145000000Y-88400000D03*
X143300000Y-88400000D03*
X148300000Y-65900000D03*
X150000000Y-65900000D03*
X151700000Y-65900000D03*
X151700000Y-61100000D03*
X150000000Y-61100000D03*
X148300000Y-61100000D03*
X153300000Y-83600000D03*
X155000000Y-83600000D03*
X156700000Y-83600000D03*
X156700000Y-88400000D03*
X155000000Y-88400000D03*
X153300000Y-88400000D03*
X158300000Y-65900000D03*
X160000000Y-65900000D03*
X161700000Y-65900000D03*
X161700000Y-61100000D03*
X160000000Y-61100000D03*
X158300000Y-61100000D03*
X163300000Y-83600000D03*
X165000000Y-83600000D03*
X166700000Y-83600000D03*
X166700000Y-88400000D03*
X165000000Y-88400000D03*
X163300000Y-88400000D03*
M02*
