G04 #@! TF.GenerationSoftware,KiCad,Pcbnew,(5.1.0)-1*
G04 #@! TF.CreationDate,2019-04-08T11:36:16+09:00*
G04 #@! TF.ProjectId,APA102,41504131-3032-42e6-9b69-6361645f7063,rev?*
G04 #@! TF.SameCoordinates,Original*
G04 #@! TF.FileFunction,Soldermask,Top*
G04 #@! TF.FilePolarity,Negative*
%FSLAX46Y46*%
G04 Gerber Fmt 4.6, Leading zero omitted, Abs format (unit mm)*
G04 Created by KiCad (PCBNEW (5.1.0)-1) date 2019-04-08 11:36:16*
%MOMM*%
%LPD*%
G04 APERTURE LIST*
%ADD10C,0.100000*%
G04 APERTURE END LIST*
D10*
G36*
X155601000Y-89451000D02*
G01*
X154399000Y-89451000D01*
X154399000Y-87349000D01*
X155601000Y-87349000D01*
X155601000Y-89451000D01*
X155601000Y-89451000D01*
G37*
G36*
X123901000Y-89451000D02*
G01*
X122699000Y-89451000D01*
X122699000Y-87349000D01*
X123901000Y-87349000D01*
X123901000Y-89451000D01*
X123901000Y-89451000D01*
G37*
G36*
X153901000Y-89451000D02*
G01*
X152699000Y-89451000D01*
X152699000Y-87349000D01*
X153901000Y-87349000D01*
X153901000Y-89451000D01*
X153901000Y-89451000D01*
G37*
G36*
X163901000Y-89451000D02*
G01*
X162699000Y-89451000D01*
X162699000Y-87349000D01*
X163901000Y-87349000D01*
X163901000Y-89451000D01*
X163901000Y-89451000D01*
G37*
G36*
X167301000Y-89451000D02*
G01*
X166099000Y-89451000D01*
X166099000Y-87349000D01*
X167301000Y-87349000D01*
X167301000Y-89451000D01*
X167301000Y-89451000D01*
G37*
G36*
X103901000Y-89451000D02*
G01*
X102699000Y-89451000D01*
X102699000Y-87349000D01*
X103901000Y-87349000D01*
X103901000Y-89451000D01*
X103901000Y-89451000D01*
G37*
G36*
X105601000Y-89451000D02*
G01*
X104399000Y-89451000D01*
X104399000Y-87349000D01*
X105601000Y-87349000D01*
X105601000Y-89451000D01*
X105601000Y-89451000D01*
G37*
G36*
X107301000Y-89451000D02*
G01*
X106099000Y-89451000D01*
X106099000Y-87349000D01*
X107301000Y-87349000D01*
X107301000Y-89451000D01*
X107301000Y-89451000D01*
G37*
G36*
X113901000Y-89451000D02*
G01*
X112699000Y-89451000D01*
X112699000Y-87349000D01*
X113901000Y-87349000D01*
X113901000Y-89451000D01*
X113901000Y-89451000D01*
G37*
G36*
X115601000Y-89451000D02*
G01*
X114399000Y-89451000D01*
X114399000Y-87349000D01*
X115601000Y-87349000D01*
X115601000Y-89451000D01*
X115601000Y-89451000D01*
G37*
G36*
X117301000Y-89451000D02*
G01*
X116099000Y-89451000D01*
X116099000Y-87349000D01*
X117301000Y-87349000D01*
X117301000Y-89451000D01*
X117301000Y-89451000D01*
G37*
G36*
X125601000Y-89451000D02*
G01*
X124399000Y-89451000D01*
X124399000Y-87349000D01*
X125601000Y-87349000D01*
X125601000Y-89451000D01*
X125601000Y-89451000D01*
G37*
G36*
X127301000Y-89451000D02*
G01*
X126099000Y-89451000D01*
X126099000Y-87349000D01*
X127301000Y-87349000D01*
X127301000Y-89451000D01*
X127301000Y-89451000D01*
G37*
G36*
X137301000Y-89451000D02*
G01*
X136099000Y-89451000D01*
X136099000Y-87349000D01*
X137301000Y-87349000D01*
X137301000Y-89451000D01*
X137301000Y-89451000D01*
G37*
G36*
X135601000Y-89451000D02*
G01*
X134399000Y-89451000D01*
X134399000Y-87349000D01*
X135601000Y-87349000D01*
X135601000Y-89451000D01*
X135601000Y-89451000D01*
G37*
G36*
X133901000Y-89451000D02*
G01*
X132699000Y-89451000D01*
X132699000Y-87349000D01*
X133901000Y-87349000D01*
X133901000Y-89451000D01*
X133901000Y-89451000D01*
G37*
G36*
X147301000Y-89451000D02*
G01*
X146099000Y-89451000D01*
X146099000Y-87349000D01*
X147301000Y-87349000D01*
X147301000Y-89451000D01*
X147301000Y-89451000D01*
G37*
G36*
X145601000Y-89451000D02*
G01*
X144399000Y-89451000D01*
X144399000Y-87349000D01*
X145601000Y-87349000D01*
X145601000Y-89451000D01*
X145601000Y-89451000D01*
G37*
G36*
X143901000Y-89451000D02*
G01*
X142699000Y-89451000D01*
X142699000Y-87349000D01*
X143901000Y-87349000D01*
X143901000Y-89451000D01*
X143901000Y-89451000D01*
G37*
G36*
X157301000Y-89451000D02*
G01*
X156099000Y-89451000D01*
X156099000Y-87349000D01*
X157301000Y-87349000D01*
X157301000Y-89451000D01*
X157301000Y-89451000D01*
G37*
G36*
X165601000Y-89451000D02*
G01*
X164399000Y-89451000D01*
X164399000Y-87349000D01*
X165601000Y-87349000D01*
X165601000Y-89451000D01*
X165601000Y-89451000D01*
G37*
G36*
X133901000Y-84651000D02*
G01*
X132699000Y-84651000D01*
X132699000Y-82549000D01*
X133901000Y-82549000D01*
X133901000Y-84651000D01*
X133901000Y-84651000D01*
G37*
G36*
X135601000Y-84651000D02*
G01*
X134399000Y-84651000D01*
X134399000Y-82549000D01*
X135601000Y-82549000D01*
X135601000Y-84651000D01*
X135601000Y-84651000D01*
G37*
G36*
X137301000Y-84651000D02*
G01*
X136099000Y-84651000D01*
X136099000Y-82549000D01*
X137301000Y-82549000D01*
X137301000Y-84651000D01*
X137301000Y-84651000D01*
G37*
G36*
X143901000Y-84651000D02*
G01*
X142699000Y-84651000D01*
X142699000Y-82549000D01*
X143901000Y-82549000D01*
X143901000Y-84651000D01*
X143901000Y-84651000D01*
G37*
G36*
X145601000Y-84651000D02*
G01*
X144399000Y-84651000D01*
X144399000Y-82549000D01*
X145601000Y-82549000D01*
X145601000Y-84651000D01*
X145601000Y-84651000D01*
G37*
G36*
X147301000Y-84651000D02*
G01*
X146099000Y-84651000D01*
X146099000Y-82549000D01*
X147301000Y-82549000D01*
X147301000Y-84651000D01*
X147301000Y-84651000D01*
G37*
G36*
X153901000Y-84651000D02*
G01*
X152699000Y-84651000D01*
X152699000Y-82549000D01*
X153901000Y-82549000D01*
X153901000Y-84651000D01*
X153901000Y-84651000D01*
G37*
G36*
X155601000Y-84651000D02*
G01*
X154399000Y-84651000D01*
X154399000Y-82549000D01*
X155601000Y-82549000D01*
X155601000Y-84651000D01*
X155601000Y-84651000D01*
G37*
G36*
X157301000Y-84651000D02*
G01*
X156099000Y-84651000D01*
X156099000Y-82549000D01*
X157301000Y-82549000D01*
X157301000Y-84651000D01*
X157301000Y-84651000D01*
G37*
G36*
X163901000Y-84651000D02*
G01*
X162699000Y-84651000D01*
X162699000Y-82549000D01*
X163901000Y-82549000D01*
X163901000Y-84651000D01*
X163901000Y-84651000D01*
G37*
G36*
X103901000Y-84651000D02*
G01*
X102699000Y-84651000D01*
X102699000Y-82549000D01*
X103901000Y-82549000D01*
X103901000Y-84651000D01*
X103901000Y-84651000D01*
G37*
G36*
X125601000Y-84651000D02*
G01*
X124399000Y-84651000D01*
X124399000Y-82549000D01*
X125601000Y-82549000D01*
X125601000Y-84651000D01*
X125601000Y-84651000D01*
G37*
G36*
X127301000Y-84651000D02*
G01*
X126099000Y-84651000D01*
X126099000Y-82549000D01*
X127301000Y-82549000D01*
X127301000Y-84651000D01*
X127301000Y-84651000D01*
G37*
G36*
X167301000Y-84651000D02*
G01*
X166099000Y-84651000D01*
X166099000Y-82549000D01*
X167301000Y-82549000D01*
X167301000Y-84651000D01*
X167301000Y-84651000D01*
G37*
G36*
X107301000Y-84651000D02*
G01*
X106099000Y-84651000D01*
X106099000Y-82549000D01*
X107301000Y-82549000D01*
X107301000Y-84651000D01*
X107301000Y-84651000D01*
G37*
G36*
X105601000Y-84651000D02*
G01*
X104399000Y-84651000D01*
X104399000Y-82549000D01*
X105601000Y-82549000D01*
X105601000Y-84651000D01*
X105601000Y-84651000D01*
G37*
G36*
X165601000Y-84651000D02*
G01*
X164399000Y-84651000D01*
X164399000Y-82549000D01*
X165601000Y-82549000D01*
X165601000Y-84651000D01*
X165601000Y-84651000D01*
G37*
G36*
X117301000Y-84651000D02*
G01*
X116099000Y-84651000D01*
X116099000Y-82549000D01*
X117301000Y-82549000D01*
X117301000Y-84651000D01*
X117301000Y-84651000D01*
G37*
G36*
X115601000Y-84651000D02*
G01*
X114399000Y-84651000D01*
X114399000Y-82549000D01*
X115601000Y-82549000D01*
X115601000Y-84651000D01*
X115601000Y-84651000D01*
G37*
G36*
X113901000Y-84651000D02*
G01*
X112699000Y-84651000D01*
X112699000Y-82549000D01*
X113901000Y-82549000D01*
X113901000Y-84651000D01*
X113901000Y-84651000D01*
G37*
G36*
X123901000Y-84651000D02*
G01*
X122699000Y-84651000D01*
X122699000Y-82549000D01*
X123901000Y-82549000D01*
X123901000Y-84651000D01*
X123901000Y-84651000D01*
G37*
G36*
X112301000Y-66951000D02*
G01*
X111099000Y-66951000D01*
X111099000Y-64849000D01*
X112301000Y-64849000D01*
X112301000Y-66951000D01*
X112301000Y-66951000D01*
G37*
G36*
X120601000Y-66951000D02*
G01*
X119399000Y-66951000D01*
X119399000Y-64849000D01*
X120601000Y-64849000D01*
X120601000Y-66951000D01*
X120601000Y-66951000D01*
G37*
G36*
X118901000Y-66951000D02*
G01*
X117699000Y-66951000D01*
X117699000Y-64849000D01*
X118901000Y-64849000D01*
X118901000Y-66951000D01*
X118901000Y-66951000D01*
G37*
G36*
X152301000Y-66951000D02*
G01*
X151099000Y-66951000D01*
X151099000Y-64849000D01*
X152301000Y-64849000D01*
X152301000Y-66951000D01*
X152301000Y-66951000D01*
G37*
G36*
X162301000Y-66951000D02*
G01*
X161099000Y-66951000D01*
X161099000Y-64849000D01*
X162301000Y-64849000D01*
X162301000Y-66951000D01*
X162301000Y-66951000D01*
G37*
G36*
X148901000Y-66951000D02*
G01*
X147699000Y-66951000D01*
X147699000Y-64849000D01*
X148901000Y-64849000D01*
X148901000Y-66951000D01*
X148901000Y-66951000D01*
G37*
G36*
X142301000Y-66951000D02*
G01*
X141099000Y-66951000D01*
X141099000Y-64849000D01*
X142301000Y-64849000D01*
X142301000Y-66951000D01*
X142301000Y-66951000D01*
G37*
G36*
X140601000Y-66951000D02*
G01*
X139399000Y-66951000D01*
X139399000Y-64849000D01*
X140601000Y-64849000D01*
X140601000Y-66951000D01*
X140601000Y-66951000D01*
G37*
G36*
X122301000Y-66951000D02*
G01*
X121099000Y-66951000D01*
X121099000Y-64849000D01*
X122301000Y-64849000D01*
X122301000Y-66951000D01*
X122301000Y-66951000D01*
G37*
G36*
X108901000Y-66951000D02*
G01*
X107699000Y-66951000D01*
X107699000Y-64849000D01*
X108901000Y-64849000D01*
X108901000Y-66951000D01*
X108901000Y-66951000D01*
G37*
G36*
X110601000Y-66951000D02*
G01*
X109399000Y-66951000D01*
X109399000Y-64849000D01*
X110601000Y-64849000D01*
X110601000Y-66951000D01*
X110601000Y-66951000D01*
G37*
G36*
X160601000Y-66951000D02*
G01*
X159399000Y-66951000D01*
X159399000Y-64849000D01*
X160601000Y-64849000D01*
X160601000Y-66951000D01*
X160601000Y-66951000D01*
G37*
G36*
X158901000Y-66951000D02*
G01*
X157699000Y-66951000D01*
X157699000Y-64849000D01*
X158901000Y-64849000D01*
X158901000Y-66951000D01*
X158901000Y-66951000D01*
G37*
G36*
X150601000Y-66951000D02*
G01*
X149399000Y-66951000D01*
X149399000Y-64849000D01*
X150601000Y-64849000D01*
X150601000Y-66951000D01*
X150601000Y-66951000D01*
G37*
G36*
X138901000Y-66951000D02*
G01*
X137699000Y-66951000D01*
X137699000Y-64849000D01*
X138901000Y-64849000D01*
X138901000Y-66951000D01*
X138901000Y-66951000D01*
G37*
G36*
X112301000Y-62151000D02*
G01*
X111099000Y-62151000D01*
X111099000Y-60049000D01*
X112301000Y-60049000D01*
X112301000Y-62151000D01*
X112301000Y-62151000D01*
G37*
G36*
X118901000Y-62151000D02*
G01*
X117699000Y-62151000D01*
X117699000Y-60049000D01*
X118901000Y-60049000D01*
X118901000Y-62151000D01*
X118901000Y-62151000D01*
G37*
G36*
X122301000Y-62151000D02*
G01*
X121099000Y-62151000D01*
X121099000Y-60049000D01*
X122301000Y-60049000D01*
X122301000Y-62151000D01*
X122301000Y-62151000D01*
G37*
G36*
X110601000Y-62151000D02*
G01*
X109399000Y-62151000D01*
X109399000Y-60049000D01*
X110601000Y-60049000D01*
X110601000Y-62151000D01*
X110601000Y-62151000D01*
G37*
G36*
X108901000Y-62151000D02*
G01*
X107699000Y-62151000D01*
X107699000Y-60049000D01*
X108901000Y-60049000D01*
X108901000Y-62151000D01*
X108901000Y-62151000D01*
G37*
G36*
X120601000Y-62151000D02*
G01*
X119399000Y-62151000D01*
X119399000Y-60049000D01*
X120601000Y-60049000D01*
X120601000Y-62151000D01*
X120601000Y-62151000D01*
G37*
G36*
X152301000Y-62151000D02*
G01*
X151099000Y-62151000D01*
X151099000Y-60049000D01*
X152301000Y-60049000D01*
X152301000Y-62151000D01*
X152301000Y-62151000D01*
G37*
G36*
X138901000Y-62151000D02*
G01*
X137699000Y-62151000D01*
X137699000Y-60049000D01*
X138901000Y-60049000D01*
X138901000Y-62151000D01*
X138901000Y-62151000D01*
G37*
G36*
X142301000Y-62151000D02*
G01*
X141099000Y-62151000D01*
X141099000Y-60049000D01*
X142301000Y-60049000D01*
X142301000Y-62151000D01*
X142301000Y-62151000D01*
G37*
G36*
X162301000Y-62151000D02*
G01*
X161099000Y-62151000D01*
X161099000Y-60049000D01*
X162301000Y-60049000D01*
X162301000Y-62151000D01*
X162301000Y-62151000D01*
G37*
G36*
X160601000Y-62151000D02*
G01*
X159399000Y-62151000D01*
X159399000Y-60049000D01*
X160601000Y-60049000D01*
X160601000Y-62151000D01*
X160601000Y-62151000D01*
G37*
G36*
X150601000Y-62151000D02*
G01*
X149399000Y-62151000D01*
X149399000Y-60049000D01*
X150601000Y-60049000D01*
X150601000Y-62151000D01*
X150601000Y-62151000D01*
G37*
G36*
X158901000Y-62151000D02*
G01*
X157699000Y-62151000D01*
X157699000Y-60049000D01*
X158901000Y-60049000D01*
X158901000Y-62151000D01*
X158901000Y-62151000D01*
G37*
G36*
X140601000Y-62151000D02*
G01*
X139399000Y-62151000D01*
X139399000Y-60049000D01*
X140601000Y-60049000D01*
X140601000Y-62151000D01*
X140601000Y-62151000D01*
G37*
G36*
X148901000Y-62151000D02*
G01*
X147699000Y-62151000D01*
X147699000Y-60049000D01*
X148901000Y-60049000D01*
X148901000Y-62151000D01*
X148901000Y-62151000D01*
G37*
G36*
X100110443Y-40725519D02*
G01*
X100176627Y-40732037D01*
X100346466Y-40783557D01*
X100502991Y-40867222D01*
X100538729Y-40896552D01*
X100640186Y-40979814D01*
X100723448Y-41081271D01*
X100752778Y-41117009D01*
X100836443Y-41273534D01*
X100887963Y-41443373D01*
X100905359Y-41620000D01*
X100887963Y-41796627D01*
X100836443Y-41966466D01*
X100752778Y-42122991D01*
X100723448Y-42158729D01*
X100640186Y-42260186D01*
X100538729Y-42343448D01*
X100502991Y-42372778D01*
X100346466Y-42456443D01*
X100176627Y-42507963D01*
X100110442Y-42514482D01*
X100044260Y-42521000D01*
X99955740Y-42521000D01*
X99889558Y-42514482D01*
X99823373Y-42507963D01*
X99653534Y-42456443D01*
X99497009Y-42372778D01*
X99461271Y-42343448D01*
X99359814Y-42260186D01*
X99276552Y-42158729D01*
X99247222Y-42122991D01*
X99163557Y-41966466D01*
X99112037Y-41796627D01*
X99094641Y-41620000D01*
X99112037Y-41443373D01*
X99163557Y-41273534D01*
X99247222Y-41117009D01*
X99276552Y-41081271D01*
X99359814Y-40979814D01*
X99461271Y-40896552D01*
X99497009Y-40867222D01*
X99653534Y-40783557D01*
X99823373Y-40732037D01*
X99889557Y-40725519D01*
X99955740Y-40719000D01*
X100044260Y-40719000D01*
X100110443Y-40725519D01*
X100110443Y-40725519D01*
G37*
G36*
X170110443Y-40725519D02*
G01*
X170176627Y-40732037D01*
X170346466Y-40783557D01*
X170502991Y-40867222D01*
X170538729Y-40896552D01*
X170640186Y-40979814D01*
X170723448Y-41081271D01*
X170752778Y-41117009D01*
X170836443Y-41273534D01*
X170887963Y-41443373D01*
X170905359Y-41620000D01*
X170887963Y-41796627D01*
X170836443Y-41966466D01*
X170752778Y-42122991D01*
X170723448Y-42158729D01*
X170640186Y-42260186D01*
X170538729Y-42343448D01*
X170502991Y-42372778D01*
X170346466Y-42456443D01*
X170176627Y-42507963D01*
X170110443Y-42514481D01*
X170044260Y-42521000D01*
X169955740Y-42521000D01*
X169889558Y-42514482D01*
X169823373Y-42507963D01*
X169653534Y-42456443D01*
X169497009Y-42372778D01*
X169461271Y-42343448D01*
X169359814Y-42260186D01*
X169276552Y-42158729D01*
X169247222Y-42122991D01*
X169163557Y-41966466D01*
X169112037Y-41796627D01*
X169094641Y-41620000D01*
X169112037Y-41443373D01*
X169163557Y-41273534D01*
X169247222Y-41117009D01*
X169276552Y-41081271D01*
X169359814Y-40979814D01*
X169461271Y-40896552D01*
X169497009Y-40867222D01*
X169653534Y-40783557D01*
X169823373Y-40732037D01*
X169889557Y-40725519D01*
X169955740Y-40719000D01*
X170044260Y-40719000D01*
X170110443Y-40725519D01*
X170110443Y-40725519D01*
G37*
G36*
X116176627Y-39987037D02*
G01*
X116346466Y-40038557D01*
X116502991Y-40122222D01*
X116538729Y-40151552D01*
X116640186Y-40234814D01*
X116723448Y-40336271D01*
X116752778Y-40372009D01*
X116836443Y-40528534D01*
X116887963Y-40698374D01*
X116901000Y-40830743D01*
X116901000Y-41169258D01*
X116887963Y-41301627D01*
X116836443Y-41471466D01*
X116752778Y-41627991D01*
X116723448Y-41663729D01*
X116640186Y-41765186D01*
X116502989Y-41877779D01*
X116346467Y-41961442D01*
X116346465Y-41961443D01*
X116176626Y-42012963D01*
X116000000Y-42030359D01*
X115823373Y-42012963D01*
X115653534Y-41961443D01*
X115497009Y-41877778D01*
X115454750Y-41843097D01*
X115359814Y-41765186D01*
X115247221Y-41627989D01*
X115163558Y-41471467D01*
X115155036Y-41443375D01*
X115112037Y-41301626D01*
X115099000Y-41169257D01*
X115099000Y-40830742D01*
X115112037Y-40698373D01*
X115163557Y-40528534D01*
X115247222Y-40372009D01*
X115359815Y-40234815D01*
X115497010Y-40122222D01*
X115653535Y-40038557D01*
X115823374Y-39987037D01*
X116000000Y-39969641D01*
X116176627Y-39987037D01*
X116176627Y-39987037D01*
G37*
G36*
X154176627Y-39987037D02*
G01*
X154346466Y-40038557D01*
X154502991Y-40122222D01*
X154538729Y-40151552D01*
X154640186Y-40234814D01*
X154723448Y-40336271D01*
X154752778Y-40372009D01*
X154836443Y-40528534D01*
X154887963Y-40698374D01*
X154901000Y-40830743D01*
X154901000Y-41169258D01*
X154887963Y-41301627D01*
X154836443Y-41471466D01*
X154752778Y-41627991D01*
X154723448Y-41663729D01*
X154640186Y-41765186D01*
X154502989Y-41877779D01*
X154346467Y-41961442D01*
X154346465Y-41961443D01*
X154176626Y-42012963D01*
X154000000Y-42030359D01*
X153823373Y-42012963D01*
X153653534Y-41961443D01*
X153497009Y-41877778D01*
X153454750Y-41843097D01*
X153359814Y-41765186D01*
X153247221Y-41627989D01*
X153163558Y-41471467D01*
X153155036Y-41443375D01*
X153112037Y-41301626D01*
X153099000Y-41169257D01*
X153099000Y-40830742D01*
X153112037Y-40698373D01*
X153163557Y-40528534D01*
X153247222Y-40372009D01*
X153359815Y-40234815D01*
X153497010Y-40122222D01*
X153653535Y-40038557D01*
X153823374Y-39987037D01*
X154000000Y-39969641D01*
X154176627Y-39987037D01*
X154176627Y-39987037D01*
G37*
G36*
X151676627Y-39987037D02*
G01*
X151846466Y-40038557D01*
X152002991Y-40122222D01*
X152038729Y-40151552D01*
X152140186Y-40234814D01*
X152223448Y-40336271D01*
X152252778Y-40372009D01*
X152336443Y-40528534D01*
X152387963Y-40698374D01*
X152401000Y-40830743D01*
X152401000Y-41169258D01*
X152387963Y-41301627D01*
X152336443Y-41471466D01*
X152252778Y-41627991D01*
X152223448Y-41663729D01*
X152140186Y-41765186D01*
X152002989Y-41877779D01*
X151846467Y-41961442D01*
X151846465Y-41961443D01*
X151676626Y-42012963D01*
X151500000Y-42030359D01*
X151323373Y-42012963D01*
X151153534Y-41961443D01*
X150997009Y-41877778D01*
X150954750Y-41843097D01*
X150859814Y-41765186D01*
X150747221Y-41627989D01*
X150663558Y-41471467D01*
X150655036Y-41443375D01*
X150612037Y-41301626D01*
X150599000Y-41169257D01*
X150599000Y-40830742D01*
X150612037Y-40698373D01*
X150663557Y-40528534D01*
X150747222Y-40372009D01*
X150859815Y-40234815D01*
X150997010Y-40122222D01*
X151153535Y-40038557D01*
X151323374Y-39987037D01*
X151500000Y-39969641D01*
X151676627Y-39987037D01*
X151676627Y-39987037D01*
G37*
G36*
X113676627Y-39987037D02*
G01*
X113846466Y-40038557D01*
X114002991Y-40122222D01*
X114038729Y-40151552D01*
X114140186Y-40234814D01*
X114223448Y-40336271D01*
X114252778Y-40372009D01*
X114336443Y-40528534D01*
X114387963Y-40698374D01*
X114401000Y-40830743D01*
X114401000Y-41169258D01*
X114387963Y-41301627D01*
X114336443Y-41471466D01*
X114252778Y-41627991D01*
X114223448Y-41663729D01*
X114140186Y-41765186D01*
X114002989Y-41877779D01*
X113846467Y-41961442D01*
X113846465Y-41961443D01*
X113676626Y-42012963D01*
X113500000Y-42030359D01*
X113323373Y-42012963D01*
X113153534Y-41961443D01*
X112997009Y-41877778D01*
X112954750Y-41843097D01*
X112859814Y-41765186D01*
X112747221Y-41627989D01*
X112663558Y-41471467D01*
X112655036Y-41443375D01*
X112612037Y-41301626D01*
X112599000Y-41169257D01*
X112599000Y-40830742D01*
X112612037Y-40698373D01*
X112663557Y-40528534D01*
X112747222Y-40372009D01*
X112859815Y-40234815D01*
X112997010Y-40122222D01*
X113153535Y-40038557D01*
X113323374Y-39987037D01*
X113500000Y-39969641D01*
X113676627Y-39987037D01*
X113676627Y-39987037D01*
G37*
G36*
X111176627Y-39987037D02*
G01*
X111346466Y-40038557D01*
X111502991Y-40122222D01*
X111538729Y-40151552D01*
X111640186Y-40234814D01*
X111723448Y-40336271D01*
X111752778Y-40372009D01*
X111836443Y-40528534D01*
X111887963Y-40698374D01*
X111901000Y-40830743D01*
X111901000Y-41169258D01*
X111887963Y-41301627D01*
X111836443Y-41471466D01*
X111752778Y-41627991D01*
X111723448Y-41663729D01*
X111640186Y-41765186D01*
X111502989Y-41877779D01*
X111346467Y-41961442D01*
X111346465Y-41961443D01*
X111176626Y-42012963D01*
X111000000Y-42030359D01*
X110823373Y-42012963D01*
X110653534Y-41961443D01*
X110497009Y-41877778D01*
X110454750Y-41843097D01*
X110359814Y-41765186D01*
X110247221Y-41627989D01*
X110163558Y-41471467D01*
X110155036Y-41443375D01*
X110112037Y-41301626D01*
X110099000Y-41169257D01*
X110099000Y-40830742D01*
X110112037Y-40698373D01*
X110163557Y-40528534D01*
X110247222Y-40372009D01*
X110359815Y-40234815D01*
X110497010Y-40122222D01*
X110653535Y-40038557D01*
X110823374Y-39987037D01*
X111000000Y-39969641D01*
X111176627Y-39987037D01*
X111176627Y-39987037D01*
G37*
G36*
X156676627Y-39987037D02*
G01*
X156846466Y-40038557D01*
X157002991Y-40122222D01*
X157038729Y-40151552D01*
X157140186Y-40234814D01*
X157223448Y-40336271D01*
X157252778Y-40372009D01*
X157336443Y-40528534D01*
X157387963Y-40698374D01*
X157401000Y-40830743D01*
X157401000Y-41169258D01*
X157387963Y-41301627D01*
X157336443Y-41471466D01*
X157252778Y-41627991D01*
X157223448Y-41663729D01*
X157140186Y-41765186D01*
X157002989Y-41877779D01*
X156846467Y-41961442D01*
X156846465Y-41961443D01*
X156676626Y-42012963D01*
X156500000Y-42030359D01*
X156323373Y-42012963D01*
X156153534Y-41961443D01*
X155997009Y-41877778D01*
X155954750Y-41843097D01*
X155859814Y-41765186D01*
X155747221Y-41627989D01*
X155663558Y-41471467D01*
X155655036Y-41443375D01*
X155612037Y-41301626D01*
X155599000Y-41169257D01*
X155599000Y-40830742D01*
X155612037Y-40698373D01*
X155663557Y-40528534D01*
X155747222Y-40372009D01*
X155859815Y-40234815D01*
X155997010Y-40122222D01*
X156153535Y-40038557D01*
X156323374Y-39987037D01*
X156500000Y-39969641D01*
X156676627Y-39987037D01*
X156676627Y-39987037D01*
G37*
G36*
X119258600Y-39977989D02*
G01*
X119291652Y-39988015D01*
X119322103Y-40004292D01*
X119348799Y-40026201D01*
X119370708Y-40052897D01*
X119386985Y-40083348D01*
X119397011Y-40116400D01*
X119401000Y-40156903D01*
X119401000Y-41843097D01*
X119397011Y-41883600D01*
X119386985Y-41916652D01*
X119370708Y-41947103D01*
X119348799Y-41973799D01*
X119322103Y-41995708D01*
X119291652Y-42011985D01*
X119258600Y-42022011D01*
X119218097Y-42026000D01*
X117781903Y-42026000D01*
X117741400Y-42022011D01*
X117708348Y-42011985D01*
X117677897Y-41995708D01*
X117651201Y-41973799D01*
X117629292Y-41947103D01*
X117613015Y-41916652D01*
X117602989Y-41883600D01*
X117599000Y-41843097D01*
X117599000Y-40156903D01*
X117602989Y-40116400D01*
X117613015Y-40083348D01*
X117629292Y-40052897D01*
X117651201Y-40026201D01*
X117677897Y-40004292D01*
X117708348Y-39988015D01*
X117741400Y-39977989D01*
X117781903Y-39974000D01*
X119218097Y-39974000D01*
X119258600Y-39977989D01*
X119258600Y-39977989D01*
G37*
G36*
X159758600Y-39977989D02*
G01*
X159791652Y-39988015D01*
X159822103Y-40004292D01*
X159848799Y-40026201D01*
X159870708Y-40052897D01*
X159886985Y-40083348D01*
X159897011Y-40116400D01*
X159901000Y-40156903D01*
X159901000Y-41843097D01*
X159897011Y-41883600D01*
X159886985Y-41916652D01*
X159870708Y-41947103D01*
X159848799Y-41973799D01*
X159822103Y-41995708D01*
X159791652Y-42011985D01*
X159758600Y-42022011D01*
X159718097Y-42026000D01*
X158281903Y-42026000D01*
X158241400Y-42022011D01*
X158208348Y-42011985D01*
X158177897Y-41995708D01*
X158151201Y-41973799D01*
X158129292Y-41947103D01*
X158113015Y-41916652D01*
X158102989Y-41883600D01*
X158099000Y-41843097D01*
X158099000Y-40156903D01*
X158102989Y-40116400D01*
X158113015Y-40083348D01*
X158129292Y-40052897D01*
X158151201Y-40026201D01*
X158177897Y-40004292D01*
X158208348Y-39988015D01*
X158241400Y-39977989D01*
X158281903Y-39974000D01*
X159718097Y-39974000D01*
X159758600Y-39977989D01*
X159758600Y-39977989D01*
G37*
G36*
X170110442Y-38185518D02*
G01*
X170176627Y-38192037D01*
X170346466Y-38243557D01*
X170502991Y-38327222D01*
X170538729Y-38356552D01*
X170640186Y-38439814D01*
X170723448Y-38541271D01*
X170752778Y-38577009D01*
X170836443Y-38733534D01*
X170887963Y-38903373D01*
X170905359Y-39080000D01*
X170887963Y-39256627D01*
X170836443Y-39426466D01*
X170752778Y-39582991D01*
X170723448Y-39618729D01*
X170640186Y-39720186D01*
X170538729Y-39803448D01*
X170502991Y-39832778D01*
X170346466Y-39916443D01*
X170176627Y-39967963D01*
X170115331Y-39974000D01*
X170044260Y-39981000D01*
X169955740Y-39981000D01*
X169884669Y-39974000D01*
X169823373Y-39967963D01*
X169653534Y-39916443D01*
X169497009Y-39832778D01*
X169461271Y-39803448D01*
X169359814Y-39720186D01*
X169276552Y-39618729D01*
X169247222Y-39582991D01*
X169163557Y-39426466D01*
X169112037Y-39256627D01*
X169094641Y-39080000D01*
X169112037Y-38903373D01*
X169163557Y-38733534D01*
X169247222Y-38577009D01*
X169276552Y-38541271D01*
X169359814Y-38439814D01*
X169461271Y-38356552D01*
X169497009Y-38327222D01*
X169653534Y-38243557D01*
X169823373Y-38192037D01*
X169889558Y-38185518D01*
X169955740Y-38179000D01*
X170044260Y-38179000D01*
X170110442Y-38185518D01*
X170110442Y-38185518D01*
G37*
G36*
X100110442Y-38185518D02*
G01*
X100176627Y-38192037D01*
X100346466Y-38243557D01*
X100502991Y-38327222D01*
X100538729Y-38356552D01*
X100640186Y-38439814D01*
X100723448Y-38541271D01*
X100752778Y-38577009D01*
X100836443Y-38733534D01*
X100887963Y-38903373D01*
X100905359Y-39080000D01*
X100887963Y-39256627D01*
X100836443Y-39426466D01*
X100752778Y-39582991D01*
X100723448Y-39618729D01*
X100640186Y-39720186D01*
X100538729Y-39803448D01*
X100502991Y-39832778D01*
X100346466Y-39916443D01*
X100176627Y-39967963D01*
X100115331Y-39974000D01*
X100044260Y-39981000D01*
X99955740Y-39981000D01*
X99884669Y-39974000D01*
X99823373Y-39967963D01*
X99653534Y-39916443D01*
X99497009Y-39832778D01*
X99461271Y-39803448D01*
X99359814Y-39720186D01*
X99276552Y-39618729D01*
X99247222Y-39582991D01*
X99163557Y-39426466D01*
X99112037Y-39256627D01*
X99094641Y-39080000D01*
X99112037Y-38903373D01*
X99163557Y-38733534D01*
X99247222Y-38577009D01*
X99276552Y-38541271D01*
X99359814Y-38439814D01*
X99461271Y-38356552D01*
X99497009Y-38327222D01*
X99653534Y-38243557D01*
X99823373Y-38192037D01*
X99889558Y-38185518D01*
X99955740Y-38179000D01*
X100044260Y-38179000D01*
X100110442Y-38185518D01*
X100110442Y-38185518D01*
G37*
G36*
X100110443Y-35645519D02*
G01*
X100176627Y-35652037D01*
X100346466Y-35703557D01*
X100502991Y-35787222D01*
X100538729Y-35816552D01*
X100640186Y-35899814D01*
X100723448Y-36001271D01*
X100752778Y-36037009D01*
X100836443Y-36193534D01*
X100887963Y-36363373D01*
X100905359Y-36540000D01*
X100887963Y-36716627D01*
X100836443Y-36886466D01*
X100752778Y-37042991D01*
X100723448Y-37078729D01*
X100640186Y-37180186D01*
X100538729Y-37263448D01*
X100502991Y-37292778D01*
X100346466Y-37376443D01*
X100176627Y-37427963D01*
X100110443Y-37434481D01*
X100044260Y-37441000D01*
X99955740Y-37441000D01*
X99889557Y-37434481D01*
X99823373Y-37427963D01*
X99653534Y-37376443D01*
X99497009Y-37292778D01*
X99461271Y-37263448D01*
X99359814Y-37180186D01*
X99276552Y-37078729D01*
X99247222Y-37042991D01*
X99163557Y-36886466D01*
X99112037Y-36716627D01*
X99094641Y-36540000D01*
X99112037Y-36363373D01*
X99163557Y-36193534D01*
X99247222Y-36037009D01*
X99276552Y-36001271D01*
X99359814Y-35899814D01*
X99461271Y-35816552D01*
X99497009Y-35787222D01*
X99653534Y-35703557D01*
X99823373Y-35652037D01*
X99889557Y-35645519D01*
X99955740Y-35639000D01*
X100044260Y-35639000D01*
X100110443Y-35645519D01*
X100110443Y-35645519D01*
G37*
G36*
X170110443Y-35645519D02*
G01*
X170176627Y-35652037D01*
X170346466Y-35703557D01*
X170502991Y-35787222D01*
X170538729Y-35816552D01*
X170640186Y-35899814D01*
X170723448Y-36001271D01*
X170752778Y-36037009D01*
X170836443Y-36193534D01*
X170887963Y-36363373D01*
X170905359Y-36540000D01*
X170887963Y-36716627D01*
X170836443Y-36886466D01*
X170752778Y-37042991D01*
X170723448Y-37078729D01*
X170640186Y-37180186D01*
X170538729Y-37263448D01*
X170502991Y-37292778D01*
X170346466Y-37376443D01*
X170176627Y-37427963D01*
X170110442Y-37434482D01*
X170044260Y-37441000D01*
X169955740Y-37441000D01*
X169889557Y-37434481D01*
X169823373Y-37427963D01*
X169653534Y-37376443D01*
X169497009Y-37292778D01*
X169461271Y-37263448D01*
X169359814Y-37180186D01*
X169276552Y-37078729D01*
X169247222Y-37042991D01*
X169163557Y-36886466D01*
X169112037Y-36716627D01*
X169094641Y-36540000D01*
X169112037Y-36363373D01*
X169163557Y-36193534D01*
X169247222Y-36037009D01*
X169276552Y-36001271D01*
X169359814Y-35899814D01*
X169461271Y-35816552D01*
X169497009Y-35787222D01*
X169653534Y-35703557D01*
X169823373Y-35652037D01*
X169889557Y-35645519D01*
X169955740Y-35639000D01*
X170044260Y-35639000D01*
X170110443Y-35645519D01*
X170110443Y-35645519D01*
G37*
G36*
X145375256Y-33391298D02*
G01*
X145481579Y-33412447D01*
X145782042Y-33536903D01*
X146052451Y-33717585D01*
X146282415Y-33947549D01*
X146463097Y-34217958D01*
X146587553Y-34518421D01*
X146651000Y-34837391D01*
X146651000Y-35162609D01*
X146587553Y-35481579D01*
X146463097Y-35782042D01*
X146282415Y-36052451D01*
X146052451Y-36282415D01*
X145782042Y-36463097D01*
X145481579Y-36587553D01*
X145375256Y-36608702D01*
X145162611Y-36651000D01*
X144837389Y-36651000D01*
X144624744Y-36608702D01*
X144518421Y-36587553D01*
X144217958Y-36463097D01*
X143947549Y-36282415D01*
X143717585Y-36052451D01*
X143536903Y-35782042D01*
X143412447Y-35481579D01*
X143349000Y-35162609D01*
X143349000Y-34837391D01*
X143412447Y-34518421D01*
X143536903Y-34217958D01*
X143717585Y-33947549D01*
X143947549Y-33717585D01*
X144217958Y-33536903D01*
X144518421Y-33412447D01*
X144624744Y-33391298D01*
X144837389Y-33349000D01*
X145162611Y-33349000D01*
X145375256Y-33391298D01*
X145375256Y-33391298D01*
G37*
G36*
X125375256Y-33391298D02*
G01*
X125481579Y-33412447D01*
X125782042Y-33536903D01*
X126052451Y-33717585D01*
X126282415Y-33947549D01*
X126463097Y-34217958D01*
X126587553Y-34518421D01*
X126651000Y-34837391D01*
X126651000Y-35162609D01*
X126587553Y-35481579D01*
X126463097Y-35782042D01*
X126282415Y-36052451D01*
X126052451Y-36282415D01*
X125782042Y-36463097D01*
X125481579Y-36587553D01*
X125375256Y-36608702D01*
X125162611Y-36651000D01*
X124837389Y-36651000D01*
X124624744Y-36608702D01*
X124518421Y-36587553D01*
X124217958Y-36463097D01*
X123947549Y-36282415D01*
X123717585Y-36052451D01*
X123536903Y-35782042D01*
X123412447Y-35481579D01*
X123349000Y-35162609D01*
X123349000Y-34837391D01*
X123412447Y-34518421D01*
X123536903Y-34217958D01*
X123717585Y-33947549D01*
X123947549Y-33717585D01*
X124217958Y-33536903D01*
X124518421Y-33412447D01*
X124624744Y-33391298D01*
X124837389Y-33349000D01*
X125162611Y-33349000D01*
X125375256Y-33391298D01*
X125375256Y-33391298D01*
G37*
G36*
X135375256Y-33391298D02*
G01*
X135481579Y-33412447D01*
X135782042Y-33536903D01*
X136052451Y-33717585D01*
X136282415Y-33947549D01*
X136463097Y-34217958D01*
X136587553Y-34518421D01*
X136651000Y-34837391D01*
X136651000Y-35162609D01*
X136587553Y-35481579D01*
X136463097Y-35782042D01*
X136282415Y-36052451D01*
X136052451Y-36282415D01*
X135782042Y-36463097D01*
X135481579Y-36587553D01*
X135375256Y-36608702D01*
X135162611Y-36651000D01*
X134837389Y-36651000D01*
X134624744Y-36608702D01*
X134518421Y-36587553D01*
X134217958Y-36463097D01*
X133947549Y-36282415D01*
X133717585Y-36052451D01*
X133536903Y-35782042D01*
X133412447Y-35481579D01*
X133349000Y-35162609D01*
X133349000Y-34837391D01*
X133412447Y-34518421D01*
X133536903Y-34217958D01*
X133717585Y-33947549D01*
X133947549Y-33717585D01*
X134217958Y-33536903D01*
X134518421Y-33412447D01*
X134624744Y-33391298D01*
X134837389Y-33349000D01*
X135162611Y-33349000D01*
X135375256Y-33391298D01*
X135375256Y-33391298D01*
G37*
G36*
X100901000Y-34901000D02*
G01*
X99099000Y-34901000D01*
X99099000Y-33099000D01*
X100901000Y-33099000D01*
X100901000Y-34901000D01*
X100901000Y-34901000D01*
G37*
G36*
X170901000Y-34901000D02*
G01*
X169099000Y-34901000D01*
X169099000Y-33099000D01*
X170901000Y-33099000D01*
X170901000Y-34901000D01*
X170901000Y-34901000D01*
G37*
M02*
