M48
; DRILL file {KiCad (5.1.0)-1} date 2019/04/08 11:36:18
; FORMAT={-:-/ absolute / inch / decimal}
; #@! TF.CreationDate,2019-04-08T11:36:18+09:00
; #@! TF.GenerationSoftware,Kicad,Pcbnew,(5.1.0)-1
; #@! TF.FileFunction,Plated,1,2,PTH
FMAT,2
INCH
T1C0.0157
T2C0.0197
T3C0.0374
T4C0.0394
%
G90
G05
T1
X4.1329Y-3.5539
X4.1339Y-3.2171
X4.2008Y-3.5548
X4.2196Y-3.2179
X4.3307Y-2.3323
X4.3976Y-2.3323
X4.4652Y-2.436
X4.5174Y-3.5542
X4.5276Y-3.2184
X4.5282Y-2.415
X4.5284Y-2.4712
X4.5286Y-2.6496
X4.5881Y-3.5539
X4.5972Y-3.2062
X4.6043Y-2.6644
X4.7369Y-2.3324
X4.8216Y-2.3313
X4.857Y-2.5288
X4.8637Y-2.3286
X4.8772Y-2.2515
X4.9213Y-3.2167
X4.9213Y-3.5561
X4.9882Y-3.2181
X4.9882Y-3.5548
X5.1823Y-3.3784
X5.3258Y-3.5539
X5.448Y-3.5008
X5.448Y-3.3534
X5.5118Y-2.3297
X5.5787Y-2.3319
X5.644Y-2.5154
X5.6443Y-2.6496
X5.7087Y-3.2262
X5.7356Y-3.5538
X5.7996Y-3.5538
X5.8412Y-3.3569
X5.9055Y-2.3325
X5.9724Y-2.3297
X6.0381Y-2.4923
X6.0642Y-2.6654
X6.1033Y-3.5539
X6.1111Y-3.2165
X6.1211Y-1.8937
X6.2359Y-3.2458
X6.2992Y-2.6695
X6.3015Y-3.3135
X6.3661Y-2.6697
X6.3996Y-2.332
X6.4961Y-3.5533
X6.5038Y-3.1921
X6.5081Y-2.1909
X6.5502Y-3.1921
X6.563Y-3.5533
X6.6095Y-1.7015
T2
X4.8228Y-1.5551
T3
X5.9646Y-1.6142
X6.063Y-1.6142
X6.1614Y-1.6142
X6.2598Y-1.6142
X4.3701Y-1.6142
X4.4685Y-1.6142
X4.5669Y-1.6142
X4.6654Y-1.6142
T4
X6.6929Y-1.3386
X6.6929Y-1.4386
X6.6929Y-1.5386
X6.6929Y-1.6386
X3.937Y-1.3386
X3.937Y-1.4386
X3.937Y-1.5386
X3.937Y-1.6386
T0
M30
