G04 #@! TF.GenerationSoftware,KiCad,Pcbnew,(5.1.0)-1*
G04 #@! TF.CreationDate,2019-04-08T11:36:16+09:00*
G04 #@! TF.ProjectId,APA102,41504131-3032-42e6-9b69-6361645f7063,rev?*
G04 #@! TF.SameCoordinates,Original*
G04 #@! TF.FileFunction,Copper,L1,Top*
G04 #@! TF.FilePolarity,Positive*
%FSLAX46Y46*%
G04 Gerber Fmt 4.6, Leading zero omitted, Abs format (unit mm)*
G04 Created by KiCad (PCBNEW (5.1.0)-1) date 2019-04-08 11:36:16*
%MOMM*%
%LPD*%
G04 APERTURE LIST*
%ADD10R,1.100000X2.000000*%
%ADD11O,1.700000X1.700000*%
%ADD12R,1.700000X1.700000*%
%ADD13C,0.100000*%
%ADD14C,1.700000*%
%ADD15O,1.700000X1.950000*%
%ADD16C,0.800000*%
%ADD17C,1.000000*%
%ADD18C,0.750000*%
%ADD19C,0.300000*%
%ADD20C,1.000000*%
G04 APERTURE END LIST*
D10*
X103300000Y-88400000D03*
X105000000Y-88400000D03*
X106700000Y-88400000D03*
X106700000Y-83600000D03*
X105000000Y-83600000D03*
X103300000Y-83600000D03*
X108300000Y-61100000D03*
X110000000Y-61100000D03*
X111700000Y-61100000D03*
X111700000Y-65900000D03*
X110000000Y-65900000D03*
X108300000Y-65900000D03*
X113300000Y-88400000D03*
X115000000Y-88400000D03*
X116700000Y-88400000D03*
X116700000Y-83600000D03*
X115000000Y-83600000D03*
X113300000Y-83600000D03*
X118300000Y-61100000D03*
X120000000Y-61100000D03*
X121700000Y-61100000D03*
X121700000Y-65900000D03*
X120000000Y-65900000D03*
X118300000Y-65900000D03*
X123300000Y-88400000D03*
X125000000Y-88400000D03*
X126700000Y-88400000D03*
X126700000Y-83600000D03*
X125000000Y-83600000D03*
X123300000Y-83600000D03*
X133300000Y-83600000D03*
X135000000Y-83600000D03*
X136700000Y-83600000D03*
X136700000Y-88400000D03*
X135000000Y-88400000D03*
X133300000Y-88400000D03*
X138300000Y-65900000D03*
X140000000Y-65900000D03*
X141700000Y-65900000D03*
X141700000Y-61100000D03*
X140000000Y-61100000D03*
X138300000Y-61100000D03*
X143300000Y-83600000D03*
X145000000Y-83600000D03*
X146700000Y-83600000D03*
X146700000Y-88400000D03*
X145000000Y-88400000D03*
X143300000Y-88400000D03*
X148300000Y-65900000D03*
X150000000Y-65900000D03*
X151700000Y-65900000D03*
X151700000Y-61100000D03*
X150000000Y-61100000D03*
X148300000Y-61100000D03*
X153300000Y-83600000D03*
X155000000Y-83600000D03*
X156700000Y-83600000D03*
X156700000Y-88400000D03*
X155000000Y-88400000D03*
X153300000Y-88400000D03*
X158300000Y-65900000D03*
X160000000Y-65900000D03*
X161700000Y-65900000D03*
X161700000Y-61100000D03*
X160000000Y-61100000D03*
X158300000Y-61100000D03*
X163300000Y-83600000D03*
X165000000Y-83600000D03*
X166700000Y-83600000D03*
X166700000Y-88400000D03*
X165000000Y-88400000D03*
X163300000Y-88400000D03*
D11*
X100000000Y-41620000D03*
X100000000Y-39080000D03*
X100000000Y-36540000D03*
D12*
X100000000Y-34000000D03*
X170000000Y-34000000D03*
D11*
X170000000Y-36540000D03*
X170000000Y-39080000D03*
X170000000Y-41620000D03*
D13*
G36*
X119124504Y-40026204D02*
G01*
X119148773Y-40029804D01*
X119172571Y-40035765D01*
X119195671Y-40044030D01*
X119217849Y-40054520D01*
X119238893Y-40067133D01*
X119258598Y-40081747D01*
X119276777Y-40098223D01*
X119293253Y-40116402D01*
X119307867Y-40136107D01*
X119320480Y-40157151D01*
X119330970Y-40179329D01*
X119339235Y-40202429D01*
X119345196Y-40226227D01*
X119348796Y-40250496D01*
X119350000Y-40275000D01*
X119350000Y-41725000D01*
X119348796Y-41749504D01*
X119345196Y-41773773D01*
X119339235Y-41797571D01*
X119330970Y-41820671D01*
X119320480Y-41842849D01*
X119307867Y-41863893D01*
X119293253Y-41883598D01*
X119276777Y-41901777D01*
X119258598Y-41918253D01*
X119238893Y-41932867D01*
X119217849Y-41945480D01*
X119195671Y-41955970D01*
X119172571Y-41964235D01*
X119148773Y-41970196D01*
X119124504Y-41973796D01*
X119100000Y-41975000D01*
X117900000Y-41975000D01*
X117875496Y-41973796D01*
X117851227Y-41970196D01*
X117827429Y-41964235D01*
X117804329Y-41955970D01*
X117782151Y-41945480D01*
X117761107Y-41932867D01*
X117741402Y-41918253D01*
X117723223Y-41901777D01*
X117706747Y-41883598D01*
X117692133Y-41863893D01*
X117679520Y-41842849D01*
X117669030Y-41820671D01*
X117660765Y-41797571D01*
X117654804Y-41773773D01*
X117651204Y-41749504D01*
X117650000Y-41725000D01*
X117650000Y-40275000D01*
X117651204Y-40250496D01*
X117654804Y-40226227D01*
X117660765Y-40202429D01*
X117669030Y-40179329D01*
X117679520Y-40157151D01*
X117692133Y-40136107D01*
X117706747Y-40116402D01*
X117723223Y-40098223D01*
X117741402Y-40081747D01*
X117761107Y-40067133D01*
X117782151Y-40054520D01*
X117804329Y-40044030D01*
X117827429Y-40035765D01*
X117851227Y-40029804D01*
X117875496Y-40026204D01*
X117900000Y-40025000D01*
X119100000Y-40025000D01*
X119124504Y-40026204D01*
X119124504Y-40026204D01*
G37*
D14*
X118500000Y-41000000D03*
D15*
X116000000Y-41000000D03*
X113500000Y-41000000D03*
X111000000Y-41000000D03*
X151500000Y-41000000D03*
X154000000Y-41000000D03*
X156500000Y-41000000D03*
D13*
G36*
X159624504Y-40026204D02*
G01*
X159648773Y-40029804D01*
X159672571Y-40035765D01*
X159695671Y-40044030D01*
X159717849Y-40054520D01*
X159738893Y-40067133D01*
X159758598Y-40081747D01*
X159776777Y-40098223D01*
X159793253Y-40116402D01*
X159807867Y-40136107D01*
X159820480Y-40157151D01*
X159830970Y-40179329D01*
X159839235Y-40202429D01*
X159845196Y-40226227D01*
X159848796Y-40250496D01*
X159850000Y-40275000D01*
X159850000Y-41725000D01*
X159848796Y-41749504D01*
X159845196Y-41773773D01*
X159839235Y-41797571D01*
X159830970Y-41820671D01*
X159820480Y-41842849D01*
X159807867Y-41863893D01*
X159793253Y-41883598D01*
X159776777Y-41901777D01*
X159758598Y-41918253D01*
X159738893Y-41932867D01*
X159717849Y-41945480D01*
X159695671Y-41955970D01*
X159672571Y-41964235D01*
X159648773Y-41970196D01*
X159624504Y-41973796D01*
X159600000Y-41975000D01*
X158400000Y-41975000D01*
X158375496Y-41973796D01*
X158351227Y-41970196D01*
X158327429Y-41964235D01*
X158304329Y-41955970D01*
X158282151Y-41945480D01*
X158261107Y-41932867D01*
X158241402Y-41918253D01*
X158223223Y-41901777D01*
X158206747Y-41883598D01*
X158192133Y-41863893D01*
X158179520Y-41842849D01*
X158169030Y-41820671D01*
X158160765Y-41797571D01*
X158154804Y-41773773D01*
X158151204Y-41749504D01*
X158150000Y-41725000D01*
X158150000Y-40275000D01*
X158151204Y-40250496D01*
X158154804Y-40226227D01*
X158160765Y-40202429D01*
X158169030Y-40179329D01*
X158179520Y-40157151D01*
X158192133Y-40136107D01*
X158206747Y-40116402D01*
X158223223Y-40098223D01*
X158241402Y-40081747D01*
X158261107Y-40067133D01*
X158282151Y-40054520D01*
X158304329Y-40044030D01*
X158327429Y-40035765D01*
X158351227Y-40029804D01*
X158375496Y-40026204D01*
X158400000Y-40025000D01*
X159600000Y-40025000D01*
X159624504Y-40026204D01*
X159624504Y-40026204D01*
G37*
D14*
X159000000Y-41000000D03*
D16*
X110000000Y-59240000D03*
X104975000Y-90270300D03*
X106700000Y-90292900D03*
X115015800Y-61341100D03*
X113415100Y-61875200D03*
X111700000Y-59240200D03*
X107177600Y-81734900D03*
X105000000Y-81715100D03*
X167882000Y-43218500D03*
D17*
X122500000Y-39500000D03*
D16*
X116768800Y-81437500D03*
X123536800Y-59146700D03*
X123881300Y-57189000D03*
X115021300Y-62769400D03*
X115000000Y-81746900D03*
X115025800Y-67300300D03*
X114742200Y-90277600D03*
X120316400Y-59243100D03*
X116537500Y-90269800D03*
X122467400Y-59214500D03*
X126700000Y-81739500D03*
X123367400Y-64232600D03*
X125000000Y-81703200D03*
X116950000Y-67676400D03*
X125000000Y-90325000D03*
X131630000Y-85811200D03*
X126700000Y-90290700D03*
X138379800Y-85175100D03*
X141700000Y-59230600D03*
X138378400Y-88919600D03*
X140000000Y-59173500D03*
X135275000Y-90270300D03*
X143358800Y-63891100D03*
X145000000Y-81946100D03*
X143366000Y-67300300D03*
X148365900Y-85265900D03*
X151700000Y-59173500D03*
X147308600Y-90265900D03*
X150000000Y-59245400D03*
X145683600Y-90265900D03*
X153367200Y-63304200D03*
X155222000Y-81699400D03*
X158391500Y-82442100D03*
X154031300Y-67700100D03*
X162550000Y-59232700D03*
X160058100Y-84163700D03*
X165305400Y-55648000D03*
X155025000Y-90270300D03*
X160000000Y-67805500D03*
X165195300Y-81079400D03*
X161700000Y-67811400D03*
X166375000Y-81079400D03*
X166700000Y-90254700D03*
X165000000Y-90254700D03*
X155475900Y-48100500D03*
D18*
X130000000Y-70000000D02*
X118400000Y-70000000D01*
X138400000Y-70000000D02*
X130000000Y-70000000D01*
X118400000Y-70000000D02*
X108500000Y-70000000D01*
X108500000Y-70000000D02*
X108300000Y-69800000D01*
X108300000Y-69800000D02*
X108300000Y-65900000D01*
X148500000Y-70000000D02*
X148300000Y-69800000D01*
X148300000Y-69800000D02*
X148300000Y-65900000D01*
X158300000Y-65900000D02*
X158300000Y-69700000D01*
X158300000Y-69700000D02*
X158000000Y-70000000D01*
X158000000Y-70000000D02*
X148500000Y-70000000D01*
X115000000Y-34000000D02*
X100925000Y-34000000D01*
X118000000Y-34000000D02*
X115000000Y-34000000D01*
X159000000Y-34000000D02*
X159000000Y-35000000D01*
X157000000Y-32000000D02*
X159000000Y-34000000D01*
X159000000Y-34000000D02*
X158000000Y-34000000D01*
X160000000Y-34000000D02*
X159000000Y-34000000D01*
X158000000Y-34000000D02*
X156000000Y-32000000D01*
X118500000Y-34500000D02*
X118000000Y-34000000D01*
X118500000Y-34500000D02*
X119000000Y-34000000D01*
X160000000Y-34000000D02*
X169075000Y-34000000D01*
X118500000Y-41000000D02*
X118500000Y-34500000D01*
X119000000Y-34000000D02*
X120000000Y-34000000D01*
X160000000Y-34000000D02*
X159000000Y-35000000D01*
X163300000Y-88400000D02*
X163300000Y-91800000D01*
X163300000Y-91800000D02*
X153400000Y-91800000D01*
X153400000Y-91800000D02*
X153300000Y-91700000D01*
X153300000Y-91700000D02*
X153300000Y-88400000D01*
X143300000Y-88400000D02*
X143300000Y-91700000D01*
X143300000Y-91700000D02*
X143400000Y-91800000D01*
X133300000Y-88400000D02*
X133300000Y-91500000D01*
X133300000Y-91500000D02*
X133600000Y-91800000D01*
X133600000Y-91800000D02*
X138000000Y-91800000D01*
X123500000Y-91800000D02*
X123300000Y-91600000D01*
X123300000Y-91600000D02*
X123300000Y-88400000D01*
X123500000Y-91800000D02*
X113400000Y-91800000D01*
X113400000Y-91800000D02*
X113300000Y-91700000D01*
X113300000Y-91700000D02*
X113300000Y-88400000D01*
X113400000Y-91800000D02*
X103400000Y-91800000D01*
X103400000Y-91800000D02*
X103300000Y-91700000D01*
X103300000Y-91700000D02*
X103300000Y-88400000D01*
X148500000Y-70000000D02*
X138400000Y-70000000D01*
X138400000Y-70000000D02*
X138300000Y-69900000D01*
X138300000Y-69900000D02*
X138300000Y-65900000D01*
X118400000Y-70000000D02*
X118300000Y-69900000D01*
X118300000Y-69900000D02*
X118300000Y-65900000D01*
X130000000Y-70000000D02*
X130000000Y-91700000D01*
X130000000Y-91700000D02*
X129900000Y-91800000D01*
X129900000Y-91800000D02*
X123500000Y-91800000D01*
X138000000Y-91800000D02*
X133600000Y-91800000D01*
X133600000Y-91800000D02*
X129900000Y-91800000D01*
X143400000Y-91800000D02*
X143800000Y-91800000D01*
X143800000Y-91800000D02*
X153400000Y-91800000D01*
X138000000Y-91800000D02*
X143400000Y-91800000D01*
X143400000Y-91800000D02*
X143800000Y-91800000D01*
X158000000Y-34000000D02*
X159000000Y-35000000D01*
X159000000Y-35000000D02*
X159000000Y-41000000D01*
X115000000Y-34000000D02*
X118000000Y-34000000D01*
X118000000Y-34000000D02*
X119000000Y-34000000D01*
X118500000Y-41000000D02*
X118500000Y-45000000D01*
X118500000Y-45000000D02*
X129500000Y-45000000D01*
X130000000Y-45500000D02*
X130000000Y-70000000D01*
X129500000Y-45000000D02*
X130000000Y-45500000D01*
X156000000Y-31000000D02*
X157000000Y-32000000D01*
X119000000Y-34000000D02*
X120000000Y-34000000D01*
X120000000Y-34000000D02*
X123000000Y-31000000D01*
X155500000Y-32000000D02*
X154500000Y-31000000D01*
X156000000Y-32000000D02*
X155500000Y-32000000D01*
X123000000Y-31000000D02*
X154500000Y-31000000D01*
X156000000Y-32000000D02*
X155000000Y-31000000D01*
X157000000Y-32000000D02*
X156000000Y-32000000D01*
X154500000Y-31000000D02*
X155000000Y-31000000D01*
X155000000Y-31000000D02*
X156000000Y-31000000D01*
D19*
X105000000Y-87574600D02*
X104975000Y-87599600D01*
X104975000Y-87599600D02*
X104975000Y-90270300D01*
X110000000Y-59240000D02*
X110000000Y-61100000D01*
X105000000Y-87574600D02*
X105000000Y-88400000D01*
X105000000Y-86749200D02*
X105000000Y-87574600D01*
X106700000Y-88400000D02*
X106700000Y-90292900D01*
X111700000Y-61100000D02*
X111700000Y-59240200D01*
X115015800Y-61341100D02*
X113949200Y-61341100D01*
X113949200Y-61341100D02*
X113415100Y-61875200D01*
X107177600Y-81734900D02*
X106712800Y-82199700D01*
X106712800Y-82199700D02*
X106700000Y-82199700D01*
X106700000Y-83600000D02*
X106700000Y-82199700D01*
D18*
X116000000Y-40875000D02*
X115800000Y-40675000D01*
X116000000Y-41000000D02*
X116000000Y-40875000D01*
X116000000Y-41000000D02*
X116000000Y-40875000D01*
X116000000Y-40875000D02*
X116000000Y-36600000D01*
X116000000Y-36600000D02*
X100675000Y-36600000D01*
D19*
X105000000Y-81715100D02*
X105000000Y-83600000D01*
D18*
X113500000Y-41000000D02*
X113500000Y-39275000D01*
X113500000Y-39275000D02*
X113125000Y-38900000D01*
X113125000Y-38900000D02*
X100675000Y-38900000D01*
X149900000Y-41000000D02*
X151500000Y-41000000D01*
X148300000Y-42600000D02*
X149900000Y-41000000D01*
X113300000Y-80100000D02*
X113300000Y-83600000D01*
X103300000Y-80600000D02*
X103800000Y-80100000D01*
X103800000Y-80100000D02*
X113300000Y-80100000D01*
X108780000Y-41620000D02*
X109400000Y-41000000D01*
X108300000Y-42100000D02*
X108780000Y-41620000D01*
X108780000Y-41620000D02*
X100925000Y-41620000D01*
X109400000Y-41000000D02*
X108780000Y-41620000D01*
X140400000Y-41000000D02*
X149900000Y-41000000D01*
X108300000Y-61100000D02*
X108300000Y-42100000D01*
X118300000Y-61100000D02*
X117000000Y-61100000D01*
X117000000Y-61100000D02*
X111000000Y-55100000D01*
X111000000Y-55100000D02*
X111000000Y-41000000D01*
X158300000Y-61100000D02*
X158300000Y-60300000D01*
X158300000Y-60300000D02*
X151500000Y-53500000D01*
X151500000Y-53500000D02*
X151500000Y-41000000D01*
X123300000Y-80400000D02*
X123300000Y-83600000D01*
X143300000Y-80400000D02*
X153200000Y-80400000D01*
X153200000Y-80400000D02*
X153300000Y-80500000D01*
X153300000Y-80500000D02*
X153300000Y-83600000D01*
X109400000Y-41000000D02*
X111000000Y-41000000D01*
X103300000Y-83600000D02*
X103300000Y-80600000D01*
X103300000Y-83600000D02*
X103300000Y-80600000D01*
X103300000Y-80600000D02*
X103300000Y-47100000D01*
X103300000Y-47100000D02*
X108300000Y-42100000D01*
X108300000Y-42100000D02*
X108780000Y-41620000D01*
X108780000Y-41620000D02*
X109400000Y-41000000D01*
X153200000Y-80400000D02*
X163300000Y-80400000D01*
X163300000Y-80400000D02*
X163300000Y-83600000D01*
X133300000Y-83600000D02*
X133300000Y-80400000D01*
X133300000Y-80400000D02*
X143300000Y-80400000D01*
X143300000Y-80400000D02*
X143300000Y-83600000D01*
X149900000Y-41000000D02*
X151500000Y-41000000D01*
X113300000Y-80100000D02*
X123000000Y-80100000D01*
D20*
X123000000Y-80100000D02*
X123300000Y-80400000D01*
D18*
X163300000Y-80400000D02*
X163300000Y-79300000D01*
X163300000Y-79300000D02*
X166600000Y-76000000D01*
X166600000Y-76000000D02*
X166600000Y-44500000D01*
X166600000Y-44500000D02*
X167882000Y-43218500D01*
X167882000Y-43218500D02*
X169075000Y-42025000D01*
X130500000Y-39500000D02*
X122500000Y-39500000D01*
X138900000Y-39500000D02*
X140400000Y-41000000D01*
X130500000Y-39500000D02*
X138900000Y-39500000D01*
X148300000Y-44700000D02*
X148300000Y-42600000D01*
X148300000Y-61100000D02*
X148300000Y-44700000D01*
X148000000Y-45000000D02*
X148300000Y-44700000D01*
X137000000Y-45000000D02*
X148000000Y-45000000D01*
X136500000Y-45500000D02*
X137000000Y-45000000D01*
X136500000Y-58850000D02*
X136500000Y-45500000D01*
X138300000Y-61100000D02*
X138300000Y-60650000D01*
X138300000Y-60650000D02*
X136500000Y-58850000D01*
D19*
X123881300Y-57189000D02*
X123881300Y-58802200D01*
X123881300Y-58802200D02*
X123536800Y-59146700D01*
X111700000Y-64499700D02*
X113291000Y-64499700D01*
X113291000Y-64499700D02*
X115021300Y-62769400D01*
X111700000Y-65900000D02*
X111700000Y-64499700D01*
X116768800Y-81437500D02*
X116700000Y-81506300D01*
X116700000Y-81506300D02*
X116700000Y-83600000D01*
X110000000Y-67300300D02*
X115025800Y-67300300D01*
X110000000Y-65900000D02*
X110000000Y-67300300D01*
X115000000Y-83600000D02*
X115000000Y-81746900D01*
X120000000Y-59699700D02*
X120316400Y-59383300D01*
X120316400Y-59383300D02*
X120316400Y-59243100D01*
X120000000Y-61100000D02*
X120000000Y-59699700D01*
X114742200Y-90277600D02*
X115000000Y-90019800D01*
X115000000Y-90019800D02*
X115000000Y-88400000D01*
X122467400Y-59214500D02*
X122467400Y-61180400D01*
X122467400Y-61180400D02*
X121700000Y-61947800D01*
X116537500Y-90269800D02*
X116700000Y-90107300D01*
X116700000Y-90107300D02*
X116700000Y-88400000D01*
X121700000Y-61947800D02*
X121700000Y-61100000D01*
X121700000Y-62795700D02*
X121700000Y-61947800D01*
X121700000Y-64499700D02*
X123100300Y-64499700D01*
X123100300Y-64499700D02*
X123367400Y-64232600D01*
X121700000Y-65900000D02*
X121700000Y-64499700D01*
X126700000Y-81739500D02*
X126700000Y-83600000D01*
X120000000Y-65900000D02*
X120000000Y-64499700D01*
X125000000Y-81703200D02*
X125000000Y-83600000D01*
X120000000Y-64499700D02*
X119733400Y-64233100D01*
X119733400Y-64233100D02*
X117470800Y-64233100D01*
X117470800Y-64233100D02*
X116950000Y-64753900D01*
X116950000Y-64753900D02*
X116950000Y-67676400D01*
X135000000Y-83600000D02*
X135000000Y-85000300D01*
X125000000Y-90325000D02*
X125000000Y-88400000D01*
X135000000Y-85000300D02*
X134189100Y-85811200D01*
X134189100Y-85811200D02*
X131630000Y-85811200D01*
X136700000Y-83600000D02*
X136700000Y-85000300D01*
X136700000Y-85000300D02*
X138205000Y-85000300D01*
X138205000Y-85000300D02*
X138379800Y-85175100D01*
X126700000Y-90290700D02*
X126700000Y-88400000D01*
X136700000Y-89800300D02*
X137497700Y-89800300D01*
X137497700Y-89800300D02*
X138378400Y-88919600D01*
X136700000Y-88400000D02*
X136700000Y-89800300D01*
X141700000Y-59230600D02*
X141700000Y-61100000D01*
X135000000Y-88400000D02*
X135000000Y-89800300D01*
X135000000Y-89800300D02*
X135275000Y-90075300D01*
X135275000Y-90075300D02*
X135275000Y-90270300D01*
X140000000Y-59173500D02*
X140000000Y-61100000D01*
X143358800Y-63891100D02*
X142750200Y-64499700D01*
X142750200Y-64499700D02*
X140000000Y-64499700D01*
X140000000Y-65900000D02*
X140000000Y-64499700D01*
X145000000Y-81946100D02*
X145000000Y-83600000D01*
X146700000Y-85000300D02*
X148100300Y-85000300D01*
X148100300Y-85000300D02*
X148365900Y-85265900D01*
X146700000Y-83600000D02*
X146700000Y-85000300D01*
X143366000Y-67300300D02*
X141700000Y-67300300D01*
X141700000Y-65900000D02*
X141700000Y-67300300D01*
X146700000Y-88400000D02*
X146700000Y-89800300D01*
X146700000Y-89800300D02*
X146843000Y-89800300D01*
X146843000Y-89800300D02*
X147308600Y-90265900D01*
X151700000Y-59173500D02*
X151700000Y-61100000D01*
X145000000Y-88400000D02*
X145000000Y-89800300D01*
X145000000Y-89800300D02*
X145218000Y-89800300D01*
X145218000Y-89800300D02*
X145683600Y-90265900D01*
X150000000Y-59245400D02*
X150000000Y-61100000D01*
X150000000Y-64499700D02*
X151195500Y-63304200D01*
X151195500Y-63304200D02*
X153367200Y-63304200D01*
X155000000Y-83600000D02*
X155000000Y-82199700D01*
X150000000Y-65900000D02*
X150000000Y-64499700D01*
X155000000Y-82199700D02*
X155222000Y-81977700D01*
X155222000Y-81977700D02*
X155222000Y-81699400D01*
X151700000Y-67300300D02*
X153631500Y-67300300D01*
X153631500Y-67300300D02*
X154031300Y-67700100D01*
X151700000Y-65900000D02*
X151700000Y-67300300D01*
X158391500Y-82442100D02*
X156788000Y-84045600D01*
X156788000Y-84045600D02*
X156788000Y-85087800D01*
X156788000Y-85087800D02*
X156788000Y-85252500D01*
X156700000Y-83600000D02*
X156700000Y-85000300D01*
X156700000Y-85000300D02*
X156788000Y-85087800D01*
X156700000Y-86999700D02*
X157222100Y-86999700D01*
X157222100Y-86999700D02*
X160058100Y-84163700D01*
X161700000Y-61100000D02*
X161700000Y-59699700D01*
X156700000Y-88400000D02*
X156700000Y-86999700D01*
X162550000Y-59232700D02*
X162083000Y-59699700D01*
X162083000Y-59699700D02*
X161700000Y-59699700D01*
X165305400Y-55648000D02*
X164051700Y-55648000D01*
X164051700Y-55648000D02*
X160000000Y-59699700D01*
X160000000Y-61100000D02*
X160000000Y-59699700D01*
X155000000Y-88400000D02*
X155000000Y-89800300D01*
X155000000Y-89800300D02*
X155025000Y-89825300D01*
X155025000Y-89825300D02*
X155025000Y-90270300D01*
X165000000Y-83600000D02*
X165000000Y-82199700D01*
X160000000Y-67805500D02*
X160000000Y-65900000D01*
X165000000Y-82199700D02*
X165195300Y-82004400D01*
X165195300Y-82004400D02*
X165195300Y-81079400D01*
X161700000Y-67811400D02*
X161700000Y-65900000D01*
X166375000Y-81079400D02*
X166700000Y-81404400D01*
X166700000Y-81404400D02*
X166700000Y-83600000D01*
X166700000Y-90254700D02*
X166700000Y-88400000D01*
X165000000Y-90254700D02*
X165000000Y-88400000D01*
X158876400Y-44700000D02*
X155475900Y-48100500D01*
D18*
X158876400Y-44700000D02*
X163100000Y-44700000D01*
X163100000Y-44700000D02*
X166300000Y-41500000D01*
X166300000Y-41500000D02*
X166300000Y-39800000D01*
X166300000Y-39800000D02*
X167020000Y-39080000D01*
X167020000Y-39080000D02*
X169325000Y-39080000D01*
X154000000Y-41000000D02*
X154000000Y-42725000D01*
X154000000Y-42725000D02*
X155975000Y-44700000D01*
X155975000Y-44700000D02*
X158876400Y-44700000D01*
M02*
