G04 #@! TF.GenerationSoftware,KiCad,Pcbnew,(5.1.0)-1*
G04 #@! TF.CreationDate,2019-04-08T11:36:16+09:00*
G04 #@! TF.ProjectId,APA102,41504131-3032-42e6-9b69-6361645f7063,rev?*
G04 #@! TF.SameCoordinates,Original*
G04 #@! TF.FileFunction,Other,User*
%FSLAX46Y46*%
G04 Gerber Fmt 4.6, Leading zero omitted, Abs format (unit mm)*
G04 Created by KiCad (PCBNEW (5.1.0)-1) date 2019-04-08 11:36:16*
%MOMM*%
%LPD*%
G04 APERTURE LIST*
%ADD10C,0.050000*%
G04 APERTURE END LIST*
D10*
X138450000Y-35000000D02*
G75*
G03X138450000Y-35000000I-3450000J0D01*
G01*
X128450000Y-35000000D02*
G75*
G03X128450000Y-35000000I-3450000J0D01*
G01*
X148450000Y-35000000D02*
G75*
G03X148450000Y-35000000I-3450000J0D01*
G01*
X102250000Y-82350000D02*
X102250000Y-89650000D01*
X107750000Y-82350000D02*
X102250000Y-82350000D01*
X107750000Y-89650000D02*
X107750000Y-82350000D01*
X102250000Y-89650000D02*
X107750000Y-89650000D01*
X107250000Y-67150000D02*
X112750000Y-67150000D01*
X112750000Y-67150000D02*
X112750000Y-59850000D01*
X112750000Y-59850000D02*
X107250000Y-59850000D01*
X107250000Y-59850000D02*
X107250000Y-67150000D01*
X112250000Y-82350000D02*
X112250000Y-89650000D01*
X117750000Y-82350000D02*
X112250000Y-82350000D01*
X117750000Y-89650000D02*
X117750000Y-82350000D01*
X112250000Y-89650000D02*
X117750000Y-89650000D01*
X117250000Y-67150000D02*
X122750000Y-67150000D01*
X122750000Y-67150000D02*
X122750000Y-59850000D01*
X122750000Y-59850000D02*
X117250000Y-59850000D01*
X117250000Y-59850000D02*
X117250000Y-67150000D01*
X122250000Y-82350000D02*
X122250000Y-89650000D01*
X127750000Y-82350000D02*
X122250000Y-82350000D01*
X127750000Y-89650000D02*
X127750000Y-82350000D01*
X122250000Y-89650000D02*
X127750000Y-89650000D01*
X132250000Y-89650000D02*
X137750000Y-89650000D01*
X137750000Y-89650000D02*
X137750000Y-82350000D01*
X137750000Y-82350000D02*
X132250000Y-82350000D01*
X132250000Y-82350000D02*
X132250000Y-89650000D01*
X137250000Y-59850000D02*
X137250000Y-67150000D01*
X142750000Y-59850000D02*
X137250000Y-59850000D01*
X142750000Y-67150000D02*
X142750000Y-59850000D01*
X137250000Y-67150000D02*
X142750000Y-67150000D01*
X142250000Y-89650000D02*
X147750000Y-89650000D01*
X147750000Y-89650000D02*
X147750000Y-82350000D01*
X147750000Y-82350000D02*
X142250000Y-82350000D01*
X142250000Y-82350000D02*
X142250000Y-89650000D01*
X147250000Y-59850000D02*
X147250000Y-67150000D01*
X152750000Y-59850000D02*
X147250000Y-59850000D01*
X152750000Y-67150000D02*
X152750000Y-59850000D01*
X147250000Y-67150000D02*
X152750000Y-67150000D01*
X152250000Y-89650000D02*
X157750000Y-89650000D01*
X157750000Y-89650000D02*
X157750000Y-82350000D01*
X157750000Y-82350000D02*
X152250000Y-82350000D01*
X152250000Y-82350000D02*
X152250000Y-89650000D01*
X157250000Y-59850000D02*
X157250000Y-67150000D01*
X162750000Y-59850000D02*
X157250000Y-59850000D01*
X162750000Y-67150000D02*
X162750000Y-59850000D01*
X157250000Y-67150000D02*
X162750000Y-67150000D01*
X162250000Y-89650000D02*
X167750000Y-89650000D01*
X167750000Y-89650000D02*
X167750000Y-82350000D01*
X167750000Y-82350000D02*
X162250000Y-82350000D01*
X162250000Y-82350000D02*
X162250000Y-89650000D01*
X101800000Y-32200000D02*
X98200000Y-32200000D01*
X101800000Y-43400000D02*
X101800000Y-32200000D01*
X98200000Y-43400000D02*
X101800000Y-43400000D01*
X98200000Y-32200000D02*
X98200000Y-43400000D01*
X168200000Y-32200000D02*
X168200000Y-43400000D01*
X168200000Y-43400000D02*
X171800000Y-43400000D01*
X171800000Y-43400000D02*
X171800000Y-32200000D01*
X171800000Y-32200000D02*
X168200000Y-32200000D01*
X121450000Y-43800000D02*
X121450000Y-31300000D01*
X121450000Y-31300000D02*
X108050000Y-31300000D01*
X108050000Y-31300000D02*
X108050000Y-43800000D01*
X108050000Y-43800000D02*
X121450000Y-43800000D01*
X148550000Y-43800000D02*
X161950000Y-43800000D01*
X148550000Y-31300000D02*
X148550000Y-43800000D01*
X161950000Y-31300000D02*
X148550000Y-31300000D01*
X161950000Y-43800000D02*
X161950000Y-31300000D01*
M02*
